<?xml version="1.0" encoding="iso-8859-1"?>
<!-- Generator: Adobe Illustrator 19.0.0, SVG Export Plug-In . SVG Version: 6.00 Build 0)  -->
<svg version="1.1" id="Capa_1" xmlns="http://www.w3.org/2000/svg" xmlns:xlink="http://www.w3.org/1999/xlink" x="0px" y="0px"
	 viewBox="0 0 511.317 511.317" style="enable-background:new 0 0 511.317 511.317;" xml:space="preserve">
<g>
	<g>
		<path d="M138.627,305.56c-9.53,0-13.923-4.072-18.171-8.005l-0.792-0.733c-1.624-1.475-4.147-1.381-5.645,0.242
			c-1.494,1.623-1.385,4.151,0.238,5.641l0.772,0.71c4.616,4.276,10.939,10.135,23.598,10.135c2.208,0,3.995-1.787,3.995-3.995
			S140.835,305.56,138.627,305.56z"/>
	</g>
</g>
<g>
	<g>
		<path d="M105.472,294.294c-0.71-2.092-2.969-3.184-5.064-2.505c-17.09,5.781-42.626,10.993-63.544,12.959
			c-2.197,0.211-3.808,2.154-3.601,4.354c0.192,2.067,1.935,3.62,3.972,3.62c0.125,0,0.25-0.007,0.379-0.016
			c21.471-2.021,47.737-7.389,65.354-13.35C105.058,298.648,106.178,296.385,105.472,294.294z"/>
	</g>
</g>
<g>
	<g>
		<path d="M255.658,305.561c-9.526,0-13.915-4.065-18.163-8.005c-1.627-1.498-4.144-1.404-5.645,0.219
			c-1.498,1.614-1.405,4.142,0.214,5.648c4.615,4.275,10.935,10.127,23.594,10.127c2.208,0,3.995-1.786,3.995-3.994
			S257.866,305.561,255.658,305.561z"/>
	</g>
</g>
<g>
	<g>
		<path d="M222.757,294.294c-0.709-2.092-2.964-3.184-5.063-2.505c-16.974,5.743-42.545,10.947-63.626,12.936
			c-2.197,0.211-3.812,2.162-3.601,4.354c0.195,2.067,1.934,3.62,3.971,3.62c0.124,0,0.253-0.008,0.379-0.017
			c21.639-2.052,47.936-7.404,65.436-13.326C222.344,298.648,223.463,296.385,222.757,294.294z"/>
	</g>
</g>
<g>
	<g>
		<path d="M372.69,305.56c-8.692,0-13.069-3.339-17.141-7.053c-1.623-1.49-4.16-1.381-5.642,0.258
			c-1.49,1.63-1.373,4.151,0.258,5.641c4.844,4.424,10.977,9.144,22.524,9.144c2.208,0,3.996-1.787,3.996-3.995
			S374.898,305.56,372.69,305.56z"/>
	</g>
</g>
<g>
	<g>
		<path d="M340.092,294.295c-0.702-2.092-2.957-3.184-5.063-2.505c-16.565,5.602-42.788,10.923-63.767,12.92
			c-2.2,0.211-3.807,2.161-3.604,4.361c0.204,2.067,1.935,3.612,3.979,3.612c0.125,0,0.25-0.007,0.374-0.015
			c21.877-2.091,48.232-7.436,65.576-13.311C339.678,298.649,340.794,296.386,340.092,294.295z"/>
	</g>
</g>
<g>
	<g>
		<path d="M475.053,300.639c-1.28-1.007-2.418-2.067-3.511-3.082c-4.604-4.26-9.816-9.081-19.677-5.766
			c-16.821,5.687-42.303,10.884-63.416,12.912c-2.199,0.211-3.807,2.169-3.588,4.361c0.194,2.067,1.935,3.612,3.963,3.612
			c0.133,0,0.266-0.008,0.392-0.014c21.658-2.091,47.865-7.436,65.201-13.303c5.157-1.715,7.193-0.124,11.695,4.058
			c1.234,1.147,2.528,2.333,3.964,3.479c1.731,1.381,4.244,1.085,5.617-0.64C477.067,304.525,476.778,302.012,475.053,300.639z"/>
	</g>
</g>
<g>
	<g>
		<path d="M145.805,249.64c-8.839,0-12.857-3.725-16.743-7.33c-1.623-1.506-4.147-1.412-5.645,0.214
			c-1.498,1.615-1.405,4.144,0.214,5.645c4.303,3.99,10.197,9.46,22.173,9.46c2.208,0,3.996-1.786,3.996-3.994
			S148.013,249.64,145.805,249.64z"/>
	</g>
</g>
<g>
	<g>
		<path d="M115.259,239.215c-0.709-2.091-2.972-3.195-5.063-2.505c-15.409,5.216-38.886,10.042-58.422,12.012
			c-2.192,0.222-3.796,2.181-3.573,4.377c0.207,2.06,1.943,3.593,3.971,3.593c0.132,0,0.269-0.008,0.406-0.02
			c20.07-2.025,44.257-7.007,60.177-12.394C114.845,243.572,115.965,241.302,115.259,239.215z"/>
	</g>
</g>
<g>
	<g>
		<path d="M255.658,249.639c-8.056,0-12.1-3.085-15.869-6.522c-1.623-1.494-4.151-1.385-5.641,0.257
			c-1.491,1.627-1.373,4.155,0.257,5.641c4.565,4.167,10.346,8.614,21.253,8.614c2.208,0,3.995-1.787,3.995-3.995
			C259.653,251.426,257.866,249.639,255.658,249.639z"/>
	</g>
</g>
<g>
	<g>
		<path d="M225.081,239.216c-0.709-2.091-2.988-3.195-5.063-2.505c-15.453,5.231-38.968,10.065-58.516,12.027
			c-2.196,0.222-3.796,2.177-3.577,4.373c0.207,2.06,1.943,3.597,3.971,3.597c0.133,0,0.266-0.008,0.402-0.02
			c20.09-2.016,44.315-7.002,60.278-12.409C224.667,243.57,225.787,241.303,225.081,239.216z"/>
	</g>
</g>
<g>
	<g>
		<path d="M365.511,249.64c-7.864,0-11.937-3.019-15.121-5.848c-1.653-1.451-4.166-1.303-5.648,0.343
			c-1.459,1.65-1.302,4.178,0.344,5.641c4.385,3.881,10.244,7.853,20.426,7.853c2.208,0,3.993-1.786,3.993-3.994
			S367.719,249.64,365.511,249.64z"/>
	</g>
</g>
<g>
	<g>
		<path d="M334.966,239.215c-0.71-2.091-2.972-3.195-5.064-2.505c-15.471,5.239-39.041,10.077-58.663,12.043
			c-2.192,0.218-3.8,2.177-3.581,4.373c0.211,2.06,1.951,3.597,3.979,3.597c0.125,0,0.265-0.007,0.397-0.02
			c20.16-2.021,44.448-7.014,60.427-12.425C334.552,243.572,335.676,241.302,334.966,239.215z"/>
	</g>
</g>
<g>
	<g>
		<path d="M460.165,243.733l-1.7-1.557c-4.369-4.046-9.3-8.641-18.71-5.466c-15.525,5.259-39.15,10.1-58.78,12.051
			c-2.192,0.218-3.792,2.173-3.573,4.369c0.203,2.064,1.935,3.601,3.963,3.601c0.141,0,0.266-0.008,0.405-0.019
			c20.176-2.001,44.503-6.999,60.544-12.433c4.884-1.639,6.71,0.047,10.72,3.757l1.826,1.673c1.639,1.452,4.166,1.308,5.641-0.335
			C461.96,247.723,461.819,245.2,460.165,243.733z"/>
	</g>
</g>
<g>
	<g>
		<path d="M152.514,201.703c-7.521,0-11.188-2.801-14.878-6.187c-1.626-1.497-4.151-1.392-5.641,0.242
			c-1.494,1.623-1.385,4.151,0.242,5.641c4.369,4.014,9.9,8.293,20.277,8.293c2.208,0,3.995-1.786,3.995-3.994
			S154.722,201.703,152.514,201.703z"/>
	</g>
</g>
<g>
	<g>
		<path d="M123.643,192.119c-0.703-2.091-2.969-3.215-5.06-2.508c-14.43,4.86-36.147,9.362-54.037,11.199
			c-2.192,0.227-3.788,2.189-3.566,4.385c0.211,2.056,1.947,3.585,3.972,3.585c0.137,0,0.273-0.008,0.413-0.018
			c18.707-1.924,40.599-6.469,55.77-11.583C123.226,196.476,124.35,194.21,123.643,192.119z"/>
	</g>
</g>
<g>
	<g>
		<path d="M255.721,201.704c-7.311,0-11.091-2.813-14.06-5.446c-1.654-1.471-4.182-1.323-5.641,0.339
			c-1.463,1.65-1.315,4.174,0.339,5.637c4.155,3.689,9.71,7.458,19.361,7.458c2.209,0,3.995-1.785,3.995-3.993
			C259.715,203.491,257.93,201.704,255.721,201.704z"/>
	</g>
</g>
<g>
	<g>
		<path d="M227.11,192.118c-0.699-2.083-2.973-3.215-5.06-2.508c-14.328,4.826-36.092,9.32-54.162,11.184
			c-2.196,0.227-3.792,2.193-3.565,4.385c0.215,2.056,1.946,3.585,3.971,3.585c0.136,0,0.273-0.008,0.414-0.019
			c18.6-1.923,41.062-6.569,55.894-11.567C226.693,196.475,227.816,194.209,227.11,192.118z"/>
	</g>
</g>
<g>
	<g>
		<path d="M358.927,201.703c-6.584,0-10.142-2.185-13.021-4.545c-1.709-1.408-4.23-1.143-5.626,0.55
			c-1.396,1.705-1.154,4.222,0.555,5.622c3.605,2.965,8.918,6.362,18.093,6.362c2.208,0,3.994-1.786,3.994-3.994
			S361.135,201.703,358.927,201.703z"/>
	</g>
</g>
<g>
	<g>
		<path d="M330.628,192.118c-0.703-2.083-2.972-3.215-5.064-2.508c-14.215,4.786-36.045,9.28-54.341,11.176
			c-2.192,0.23-3.784,2.193-3.565,4.389c0.219,2.052,1.951,3.581,3.979,3.581c0.132,0,0.273-0.008,0.413-0.019
			c18.818-1.955,41.35-6.601,56.073-11.559C330.214,196.475,331.338,194.209,330.628,192.118z"/>
	</g>
</g>
<g>
	<g>
		<path d="M447.418,195.664l-0.983-0.909c-3.963-3.659-8.885-8.215-17.819-5.145c-14.232,4.79-35.96,9.273-54.061,11.153
			c-2.193,0.23-3.784,2.193-3.566,4.389c0.218,2.052,1.951,3.581,3.979,3.581c0.132,0,0.272-0.008,0.412-0.02
			c18.624-1.939,41.047-6.574,55.793-11.54c4.244-1.435,5.836-0.249,9.831,3.449l1.045,0.956c1.631,1.486,4.16,1.365,5.642-0.269
			C449.174,199.674,449.057,197.15,447.418,195.664z"/>
	</g>
</g>
<g>
	<g>
		<path d="M157.789,161.756c-6.882,0-10.334-2.563-13.283-5.188c-1.643-1.467-4.166-1.33-5.637,0.324
			c-1.471,1.646-1.327,4.17,0.323,5.637c4.003,3.57,9.34,7.217,18.597,7.217c2.208,0,3.995-1.788,3.995-3.996
			S159.997,161.756,157.789,161.756z"/>
	</g>
</g>
<g>
	<g>
		<path d="M130.638,152.815c-0.706-2.091-2.973-3.215-5.06-2.516c-13.618,4.58-33.405,8.707-50.409,10.521
			c-2.196,0.235-3.784,2.201-3.55,4.393c0.218,2.052,1.95,3.573,3.967,3.573c0.14,0,0.285-0.008,0.426-0.023
			c17.535-1.868,37.988-6.14,52.11-10.888C130.213,157.169,131.34,154.906,130.638,152.815z"/>
	</g>
</g>
<g>
	<g>
		<path d="M255.658,161.757c-6.237,0-9.636-2.118-12.378-4.408c-1.693-1.412-4.205-1.186-5.625,0.507
			c-1.412,1.693-1.186,4.208,0.507,5.625c3.491,2.918,8.637,6.265,17.496,6.265c2.208,0,3.995-1.787,3.995-3.995
			S257.866,161.757,255.658,161.757z"/>
	</g>
</g>
<g>
	<g>
		<path d="M228.777,152.816c-0.706-2.091-2.973-3.215-5.06-2.516c-13.334,4.482-33.701,8.711-50.679,10.521
			c-2.192,0.234-3.78,2.2-3.546,4.396c0.218,2.048,1.95,3.569,3.967,3.569c0.14,0,0.285-0.008,0.43-0.022
			c17.496-1.865,38.542-6.242,52.371-10.888C228.352,157.17,229.479,154.907,228.777,152.816z"/>
	</g>
</g>
<g>
	<g>
		<path d="M353.527,161.757c-5.844,0-9.128-1.904-11.328-3.562c-1.764-1.322-4.276-0.975-5.602,0.796
			c-1.319,1.763-0.968,4.268,0.795,5.594c4.697,3.522,9.816,5.161,16.135,5.161c2.208,0,3.995-1.787,3.995-3.995
			S355.735,161.757,353.527,161.757z"/>
	</g>
</g>
<g>
	<g>
		<path d="M326.968,152.816c-0.701-2.091-2.963-3.215-5.062-2.516c-13.177,4.431-33.541,8.649-50.69,10.49
			c-2.2,0.234-3.792,2.204-3.55,4.396c0.219,2.051,1.95,3.569,3.971,3.569c0.14,0,0.281-0.008,0.42-0.023
			c17.672-1.895,38.73-6.26,52.391-10.856C326.547,157.17,327.671,154.907,326.968,152.816z"/>
	</g>
</g>
<g>
	<g>
		<path d="M436.628,155.216c-3.784-3.496-8.497-7.842-17.087-4.916c-13.162,4.427-33.393,8.637-50.331,10.474
			c-2.2,0.238-3.776,2.208-3.542,4.4c0.219,2.047,1.95,3.565,3.963,3.565c0.148,0,0.297-0.008,0.437-0.022
			c17.727-1.923,38.152-6.179,52.039-10.849c3.901-1.342,5.305-0.293,9.113,3.234c1.616,1.498,4.135,1.381,5.641-0.23
			C438.352,159.249,438.242,156.714,436.628,155.216z"/>
	</g>
</g>
<g>
	<g>
		<path d="M129.825,369.477c-10.353,0-15.12-4.416-19.731-8.685c-4.884-4.524-10.427-9.674-20.87-6.116
			c-23.738,8.021-62.768,14.801-85.23,14.801c-2.208,0-3.994,1.786-3.994,3.994s1.786,3.995,3.994,3.995
			c23.574,0,62.955-6.827,87.789-15.222c5.957-1.99,8.266,0.139,12.885,4.407c4.928,4.564,11.672,10.814,25.158,10.814
			c2.208,0,3.994-1.786,3.994-3.994C133.82,371.263,132.033,369.477,129.825,369.477z"/>
	</g>
</g>
<g>
	<g>
		<path d="M255.658,369.477c-10.353,0-15.12-4.416-19.731-8.685c-4.88-4.524-10.424-9.674-20.871-6.116
			c-23.738,8.021-62.768,14.801-85.23,14.801c-2.208,0-3.995,1.786-3.995,3.994s1.787,3.995,3.995,3.995
			c23.574,0,62.955-6.827,87.789-15.222c5.949-1.99,8.266,0.139,12.885,4.407c4.928,4.564,11.672,10.814,25.158,10.814
			c2.208,0,3.995-1.786,3.995-3.994C259.653,371.263,257.866,369.477,255.658,369.477z"/>
	</g>
</g>
<g>
	<g>
		<path d="M381.489,369.477c-10.361,0-15.12-4.416-19.731-8.685c-4.884-4.524-10.424-9.674-20.87-6.116
			c-23.734,8.021-62.767,14.801-85.23,14.801c-2.208,0-3.995,1.786-3.995,3.994s1.787,3.995,3.995,3.995
			c23.578,0,62.955-6.827,87.789-15.222c5.93-1.99,8.271,0.139,12.881,4.407c4.924,4.564,11.68,10.814,25.162,10.814
			c2.208,0,3.993-1.786,3.993-3.994C385.483,371.263,383.697,369.477,381.489,369.477z"/>
	</g>
</g>
<g>
	<g>
		<path d="M507.321,369.477c-10.361,0-15.12-4.416-19.731-8.685c-4.891-4.524-10.416-9.674-20.87-6.116
			c-23.734,8.021-62.768,14.801-85.23,14.801c-2.208,0-3.994,1.786-3.994,3.994s1.786,3.995,3.994,3.995
			c23.578,0,62.955-6.827,87.789-15.222c5.938-1.99,8.263,0.139,12.881,4.407c4.924,4.564,11.68,10.814,25.162,10.814
			c2.208,0,3.993-1.786,3.993-3.994C511.315,371.263,509.529,369.477,507.321,369.477z"/>
	</g>
</g>
<g>
	<g>
		<path d="M129.825,385.455c-10.353,0-15.12-4.416-19.731-8.684c-4.884-4.525-10.427-9.675-20.87-6.117
			c-23.738,8.021-62.768,14.801-85.23,14.801c-2.208,0-3.994,1.786-3.994,3.995c0,2.207,1.786,3.994,3.994,3.994
			c23.574,0,62.955-6.827,87.789-15.222c5.957-1.989,8.266,0.139,12.885,4.408c4.928,4.563,11.672,10.813,25.158,10.813
			c2.208,0,3.995-1.787,3.994-3.993C133.82,387.241,132.033,385.455,129.825,385.455z"/>
	</g>
</g>
<g>
	<g>
		<path d="M255.658,385.455c-10.353,0-15.12-4.416-19.731-8.684c-4.88-4.525-10.424-9.675-20.871-6.117
			c-23.738,8.021-62.768,14.801-85.23,14.801c-2.208,0-3.995,1.786-3.995,3.995c0,2.207,1.787,3.994,3.995,3.994
			c23.574,0,62.955-6.827,87.789-15.222c5.949-1.989,8.266,0.139,12.885,4.408c4.928,4.563,11.672,10.813,25.158,10.813
			c2.208,0,3.995-1.787,3.995-3.993C259.653,387.241,257.866,385.455,255.658,385.455z"/>
	</g>
</g>
<g>
	<g>
		<path d="M381.489,385.455c-10.361,0-15.12-4.416-19.731-8.684c-4.884-4.525-10.424-9.675-20.87-6.117
			c-23.734,8.021-62.767,14.801-85.23,14.801c-2.208,0-3.995,1.786-3.995,3.995c0,2.207,1.787,3.994,3.995,3.994
			c23.578,0,62.955-6.827,87.789-15.222c5.93-1.989,8.271,0.139,12.881,4.408c4.924,4.563,11.68,10.813,25.162,10.813
			c2.208,0,3.994-1.787,3.993-3.993C385.483,387.241,383.697,385.455,381.489,385.455z"/>
	</g>
</g>
<g>
	<g>
		<path d="M507.321,385.455c-10.361,0-15.12-4.416-19.731-8.684c-4.891-4.525-10.416-9.675-20.87-6.117
			c-23.734,8.021-62.768,14.801-85.23,14.801c-2.208,0-3.994,1.786-3.994,3.995c0,2.207,1.786,3.994,3.994,3.994
			c23.578,0,62.955-6.827,87.789-15.222c5.938-1.989,8.263,0.139,12.881,4.408c4.924,4.563,11.68,10.813,25.162,10.813
			c2.208,0,3.994-1.787,3.993-3.993C511.315,387.241,509.529,385.455,507.321,385.455z"/>
	</g>
</g>
<g>
	<g>
		<path d="M161.783,129.799c-7.323,0-10.576-3.015-14.021-6.21c-3.662-3.394-8.231-7.608-16.587-4.779
			c-17.726,5.956-46.7,10.989-63.267,10.989c-2.208,0-3.995,1.787-3.995,3.995c0,2.208,1.787,3.995,3.995,3.995
			c17.574,0,47.097-5.115,65.822-11.407c3.683-1.256,5.001-0.266,8.602,3.066c3.796,3.518,8.996,8.34,19.451,8.34
			c2.208,0,3.995-1.786,3.995-3.994C165.778,131.586,163.991,129.799,161.783,129.799z"/>
	</g>
</g>
<g>
	<g>
		<path d="M255.659,129.799c-7.323,0-10.576-3.015-14.021-6.21c-3.663-3.394-8.231-7.608-16.587-4.779
			c-17.726,5.956-46.699,10.989-63.267,10.989c-2.208,0-3.995,1.787-3.995,3.995c0,2.208,1.787,3.995,3.995,3.995
			c17.574,0,47.097-5.115,65.822-11.407c3.686-1.256,5.005-0.266,8.602,3.066c3.795,3.518,8.995,8.34,19.45,8.34
			c2.208,0,3.996-1.786,3.996-3.994C259.654,131.586,257.867,129.799,255.659,129.799z"/>
	</g>
</g>
<g>
	<g>
		<path d="M349.533,129.799c-7.334,0-10.596-3.019-14.044-6.218c-3.667-3.39-8.223-7.615-16.563-4.771
			c-17.727,5.956-46.696,10.989-63.268,10.989c-2.208,0-3.995,1.787-3.995,3.995c0,2.208,1.787,3.995,3.995,3.995
			c17.57,0,47.094-5.115,65.834-11.411c3.659-1.248,4.977-0.258,8.566,3.066c3.808,3.522,9.02,8.344,19.475,8.344
			c2.208,0,3.994-1.786,3.994-3.994C353.527,131.586,351.741,129.799,349.533,129.799z"/>
	</g>
</g>
<g>
	<g>
		<path d="M443.408,129.799c-7.334,0-10.596-3.019-14.045-6.218c-3.666-3.39-8.207-7.615-16.563-4.771
			c-17.726,5.956-46.696,10.989-63.267,10.989c-2.208,0-3.995,1.787-3.995,3.995c0,2.208,1.787,3.995,3.995,3.995
			c17.57,0,47.094-5.115,65.834-11.411c3.667-1.248,4.977-0.258,8.566,3.066c3.808,3.522,9.02,8.344,19.475,8.344
			c2.207,0,3.994-1.786,3.994-3.994C447.402,131.586,445.615,129.799,443.408,129.799z"/>
	</g>
</g>
<g>
	<g>
		<path d="M68.939,129.935c-2.111-0.557-4.319,0.699-4.888,2.829L0.136,372.44c-0.57,2.13,0.698,4.323,2.828,4.892
			c0.347,0.094,0.691,0.133,1.034,0.133c1.764,0,3.378-1.178,3.854-2.965l63.915-239.677
			C72.337,132.689,71.069,130.501,68.939,129.935z"/>
	</g>
</g>
<g>
	<g>
		<path d="M511.177,372.441l-63.915-239.676c-0.562-2.135-2.746-3.391-4.884-2.829c-2.13,0.566-3.401,2.754-2.824,4.888
			L503.468,374.5c0.468,1.787,2.09,2.965,3.854,2.965c0.344,0,0.687-0.047,1.031-0.132
			C510.483,376.763,511.754,374.571,511.177,372.441z"/>
	</g>
</g>
<g>
	<g>
		<path d="M471.892,357.57l-53.928-235.861c-0.491-2.157-2.644-3.504-4.782-3.004c-2.153,0.492-3.495,2.634-3.004,4.783
			l53.928,235.86c0.421,1.849,2.068,3.105,3.894,3.105c0.297,0,0.593-0.031,0.888-0.101
			C471.042,361.861,472.384,359.723,471.892,357.57z"/>
	</g>
</g>
<g>
	<g>
		<path d="M324.176,122.227c-0.203-2.2-2.192-3.838-4.354-3.608c-2.191,0.207-3.806,2.154-3.604,4.35l21.971,235.856
			c0.195,2.075,1.935,3.628,3.979,3.628c0.125,0,0.25-0.008,0.375-0.016c2.192-0.202,3.807-2.154,3.604-4.346L324.176,122.227z"/>
	</g>
</g>
<g>
	<g>
		<path d="M226.49,118.607c-2.048-0.156-4.061,1.619-4.158,3.823l-9.987,235.857c-0.094,2.208,1.619,4.072,3.823,4.166
			c0.055,0,0.113,0,0.172,0c2.126,0,3.897-1.677,3.986-3.823l9.987-235.865C230.407,120.561,228.694,118.7,226.49,118.607z"/>
	</g>
</g>
<g>
	<g>
		<path d="M133.146,118.667c-2.188-0.403-4.244,1.06-4.63,3.233L86.572,357.757c-0.386,2.177,1.061,4.252,3.234,4.634
			c0.234,0.039,0.472,0.062,0.702,0.062c1.899,0,3.585-1.357,3.928-3.292l41.944-235.864
			C136.767,121.124,135.319,119.053,133.146,118.667z"/>
	</g>
</g>
<g>
	<g>
		<path d="M162.311,129.835c-2.2-0.265-4.194,1.248-4.486,3.433L125.867,372.94c-0.293,2.192,1.245,4.197,3.433,4.494
			c0.179,0.023,0.355,0.031,0.53,0.031c1.974,0,3.686-1.459,3.957-3.464l31.957-239.68
			C166.037,132.136,164.499,130.127,162.311,129.835z"/>
	</g>
</g>
<g>
	<g>
		<path d="M255.658,129.799c-2.208,0-3.995,1.787-3.995,3.995V373.47c0,2.208,1.787,3.995,3.995,3.995
			c2.208,0,3.995-1.787,3.995-3.995V133.794C259.653,131.586,257.866,129.799,255.658,129.799z"/>
	</g>
</g>
<g>
	<g>
		<path d="M385.454,372.939l-31.958-239.672c-0.296-2.184-2.277-3.698-4.494-3.433c-2.184,0.293-3.721,2.301-3.433,4.486
			L377.527,374c0.273,2.006,1.982,3.465,3.963,3.465c0.172,0,0.344-0.008,0.53-0.032
			C384.205,377.136,385.742,375.131,385.454,372.939z"/>
	</g>
</g>
<g>
	<g>
		<path d="M507.322,369.476c-2.208,0-3.994,1.786-3.994,3.994v15.979c0,2.207,1.786,3.994,3.994,3.994s3.994-1.787,3.994-3.994
			V373.47C511.316,371.262,509.53,369.476,507.322,369.476z"/>
	</g>
</g>
<g>
	<g>
		<path d="M3.994,369.476c-2.208,0-3.994,1.786-3.994,3.994v15.979c0,2.207,1.786,3.994,3.994,3.994s3.995-1.787,3.995-3.994V373.47
			C7.989,371.262,6.202,369.476,3.994,369.476z"/>
	</g>
</g>
<g>
</g>
<g>
</g>
<g>
</g>
<g>
</g>
<g>
</g>
<g>
</g>
<g>
</g>
<g>
</g>
<g>
</g>
<g>
</g>
<g>
</g>
<g>
</g>
<g>
</g>
<g>
</g>
<g>
</g>
</svg>
