<?xml version="1.0" encoding="iso-8859-1"?>
<!-- Generator: Adobe Illustrator 19.0.0, SVG Export Plug-In . SVG Version: 6.00 Build 0)  -->
<svg version="1.1" id="Capa_1" xmlns="http://www.w3.org/2000/svg" xmlns:xlink="http://www.w3.org/1999/xlink" x="0px" y="0px"
	 viewBox="0 0 512 512" style="enable-background:new 0 0 512 512;" xml:space="preserve">
<g>
	<g>
		<path d="M307.732,118.294c-13.817-13.817-32.189-21.426-51.729-21.426c-19.541,0-37.912,7.609-51.729,21.427
			c-28.523,28.522-28.523,74.933,0,103.458c5.501,5.504,11.728,10.027,18.569,13.499v124.291c0,2.652,1.054,5.195,2.929,7.071
			l14.758,14.759c1.536,1.537,3.532,2.531,5.684,2.833l14.731,2.064c0.462,0.064,0.926,0.097,1.388,0.097
			c2.099,0,4.159-0.662,5.876-1.909l27.35-19.863c2.59-1.882,4.124-4.89,4.124-8.091v-9.954c0-3.148-1.482-6.112-4.001-8
			l-7.457-5.591l8.458-8.293c1.919-1.881,3-4.454,3-7.141v-11.842c0-2.627-1.034-5.149-2.878-7.02l-10.191-10.339l-0.002-3.483
			l7.652-3.942c3.328-1.715,5.42-5.146,5.42-8.89v-21.055c0-3.589-1.924-6.903-5.04-8.684l-8.076-4.612l-0.001-1.147
			c7.853-3.597,14.948-8.542,21.165-14.758C336.255,193.228,336.255,146.817,307.732,118.294z M273.312,220.291
			c-2.067,0.71-3.848,2.082-5.065,3.898c-1.105,1.65-1.694,3.592-1.692,5.578l0.018,13.711c0.005,3.585,1.928,6.893,5.04,8.671
			l8.068,4.607v9.153l-7.657,3.945c-3.331,1.716-5.423,5.15-5.42,8.897l0.011,13.682c0.002,2.625,1.036,5.143,2.878,7.012
			l10.188,10.336v3.541l-10.109,9.911c-1.918,1.881-2.999,4.454-2.999,7.141v6.345c0,3.148,1.482,6.112,4.001,8l9.011,6.757
			l-19.862,14.426l-7.418-1.04l-9.461-9.462V228.792c0-4.11-2.515-7.801-6.339-9.306c-6.798-2.674-12.885-6.67-18.091-11.877
			c-20.726-20.724-20.726-54.447-0.002-75.172c10.04-10.04,23.389-15.569,37.587-15.569c14.199,0,27.547,5.529,37.587,15.568
			c20.725,20.725,20.725,54.448,0,75.173C287.804,213.391,280.983,217.658,273.312,220.291z"/>
	</g>
</g>
<g>
	<g>
		<circle cx="256.001" cy="150.851" r="15"/>
	</g>
</g>
<g>
	<g>
		<path d="M478.51,88.624C403.693,69.225,328.436,39.019,260.877,1.27c-3.03-1.694-6.723-1.693-9.755-0.001
			C181.619,40.1,110.43,68.675,33.489,88.624c-4.41,1.144-7.49,5.124-7.49,9.68v110.394c0,113.535,55.292,188.637,101.678,231.647
			C177.434,486.483,235.136,512,256,512c20.864,0,78.566-25.517,128.325-71.655c46.384-43.011,101.677-118.114,101.677-231.647
			V98.304C486.001,93.747,482.921,89.767,478.51,88.624z M466.001,208.697c0,106.319-51.811,176.68-95.276,216.982
			c-27.557,25.553-54.336,41.685-71.949,50.718c-22.319,11.447-37.81,15.603-42.776,15.603s-20.457-4.155-42.776-15.603
			c-17.612-9.033-44.392-25.165-71.949-50.718C97.81,385.376,45.999,315.016,45.999,208.697V106.01
			c73.962-19.8,142.799-47.523,210.002-84.574c65.496,36.059,137.827,65.184,210,84.57V208.697z"/>
	</g>
</g>
<g>
	<g>
		<path d="M443.79,115.373C380.455,96.96,318.854,71.95,260.703,41.037c-2.939-1.562-6.46-1.559-9.398,0.005
			C193.072,72.08,131.471,97.095,68.22,115.39c-4.277,1.237-7.222,5.153-7.222,9.606v83.701c0,39.077,7.405,76.161,22.008,110.222
			c14.53,33.89,36.201,64.82,64.409,91.932c20.171,19.387,43.466,36.474,67.365,49.413c4.281,2.318,26.303,14.003,39.402,16.421
			c0.6,0.111,1.207,0.166,1.815,0.166c0.608,0,1.215-0.056,1.815-0.166c13.1-2.418,35.121-14.103,39.402-16.421
			c23.897-12.938,47.192-30.024,67.366-49.413c28.208-27.111,49.878-58.041,64.409-91.932
			c14.603-34.06,22.008-71.144,22.008-110.222v-83.723C450.999,120.527,448.061,116.614,443.79,115.373z M431,208.697
			c0,73.375-27.008,136.538-80.275,187.733c-18.895,18.161-40.69,34.152-63.029,46.245c-10.166,5.504-23.89,11.919-31.696,13.934
			c-7.806-2.015-21.53-8.431-31.696-13.934c-22.34-12.094-44.135-28.085-63.028-46.245
			c-53.267-51.195-80.276-114.358-80.276-187.733v-76.214c60.356-17.971,119.174-41.934,175.019-71.305
			c55.758,29.25,114.57,53.204,174.983,71.272V208.697z"/>
	</g>
</g>
<g>
	<g>
		<path d="M226.965,403.697c-12.049-7.604-23.647-16.367-34.472-26.044c-4.117-3.68-10.438-3.326-14.12,0.79
			c-3.681,4.116-3.327,10.438,0.79,14.119c11.65,10.415,24.142,19.852,37.128,28.047c1.657,1.046,3.503,1.545,5.328,1.545
			c3.318,0,6.564-1.651,8.466-4.664C233.033,412.82,231.636,406.644,226.965,403.697z"/>
	</g>
</g>
<g>
	<g>
		<path d="M173.027,358.305l-0.2-0.215c-3.701-4.054-9.987-4.368-14.073-0.689c-4.105,3.695-4.438,10.018-0.744,14.123l0.2,0.215
			c1.971,2.158,4.673,3.256,7.387,3.256c2.383,0,4.775-0.847,6.686-2.567C176.388,368.733,176.721,362.41,173.027,358.305z"/>
	</g>
</g>
<g>
</g>
<g>
</g>
<g>
</g>
<g>
</g>
<g>
</g>
<g>
</g>
<g>
</g>
<g>
</g>
<g>
</g>
<g>
</g>
<g>
</g>
<g>
</g>
<g>
</g>
<g>
</g>
<g>
</g>
</svg>
