<?xml version="1.0" encoding="iso-8859-1"?>
<!-- Generator: Adobe Illustrator 17.1.0, SVG Export Plug-In . SVG Version: 6.00 Build 0)  -->
<!DOCTYPE svg PUBLIC "-//W3C//DTD SVG 1.1//EN" "http://www.w3.org/Graphics/SVG/1.1/DTD/svg11.dtd">
<svg version="1.1" id="Capa_1" xmlns="http://www.w3.org/2000/svg" xmlns:xlink="http://www.w3.org/1999/xlink" x="0px" y="0px"
	 viewBox="0 0 197.333 197.333" style="enable-background:new 0 0 197.333 197.333;" xml:space="preserve">
<path d="M78.403,183.74c-1.104,0-2-0.896-2-2s0.896-2,2-2c28.263,0,47.958-7.433,47.958-14.104c0-1.104,0.896-2,2-2s2,0.896,2,2
	C130.362,177.395,103.591,183.74,78.403,183.74z M186.598,172.834c-0.178,0-0.359-0.024-0.539-0.074
	c-7.167-2-14.801-3.242-21.538-4.338c-13.504-2.197-23.261-3.784-24.485-10.042c-0.721-3.687,1.906-7.193,4.446-10.585
	c2.151-2.871,4.375-5.841,3.801-8.001c-0.387-1.456-2.096-2.848-5.078-4.137c-13.74-5.941-45.562-4.414-52.701-3.983l0.989,12.782
	c0.085,1.102-0.739,2.063-1.84,2.148c-1.093,0.089-2.063-0.738-2.148-1.84l-4.601-59.47H58.744l-4.583,59.469
	c-0.085,1.102-1.041,1.935-2.148,1.841c-1.101-0.085-1.925-1.047-1.84-2.147l0.825-10.702c-2.756-0.215-8.914-1.042-11.115-4.185
	c-0.922-1.317-1.069-2.562-1.177-3.47c-0.13-1.097-0.224-1.889-5.961-2.63c-10.027-1.294-30.411,0-30.615,0.013
	c-1.101,0.078-2.054-0.765-2.125-1.867c-0.071-1.103,0.765-2.054,1.867-2.125c0.852-0.055,20.98-1.331,31.385,0.013
	c7.51,0.97,9.022,2.747,9.422,6.126c0.087,0.736,0.153,1.177,0.481,1.646c0.971,1.386,5.12,2.248,8.146,2.49l3.428-44.471h-5.399
	c-1.104,0-2-0.896-2-2s0.896-2,2-2h3.333V50.543c0-18.042,14.677-32.72,32.718-32.72h27.948v-2.229c0-1.104,0.896-2,2-2s2,0.896,2,2
	v2.229H164v-2.229c0-1.104,0.896-2,2-2s2,0.896,2,2v2.229h27.333c1.104,0,2,0.896,2,2s-0.896,2-2,2H168v26.72h27.333
	c1.104,0,2,0.896,2,2s-0.896,2-2,2H168v1.097c0,1.104-0.896,2-2,2s-2-0.896-2-2v-1.097h-46.667v1.097c0,1.104-0.896,2-2,2
	s-2-0.896-2-2v-1.097h-11.537c-7.25,0-13.149,5.898-13.149,13.148v15.604h2.02c1.104,0,2,0.896,2,2s-0.896,2-2,2h-3.75l3.279,42.387
	c7.307-0.461,39.827-2.083,54.598,4.304c4.222,1.825,6.628,4.044,7.356,6.781c1.073,4.034-1.743,7.792-4.465,11.427
	c-2.017,2.692-4.102,5.476-3.722,7.419c0.689,3.524,11.117,5.221,21.202,6.861c6.839,1.112,14.59,2.373,21.971,4.433
	c1.064,0.297,1.686,1.4,1.389,2.465C188.277,172.255,187.473,172.834,186.598,172.834z M56.667,81.295h27.98V65.691
	c0-9.456,7.693-17.148,17.149-17.148h11.537v-26.72H85.385c-15.835,0-28.718,12.884-28.718,28.72V81.295z M117.333,48.543H164
	v-26.72h-46.667V48.543z M71.167,172.593c-23.653,0-48.792-5.987-48.792-17.083c0-1.104,0.896-2,2-2s2,0.896,2,2
	c0,6.188,18.396,13.083,44.792,13.083c1.104,0,2,0.896,2,2S72.271,172.593,71.167,172.593z M71.167,163.01
	c-17.952,0-36.125-4.466-36.125-13c0-1.104,0.896-2,2-2s2,0.896,2,2c0,3.67,12.515,9,32.125,9s32.125-5.33,32.125-9
	c0-1.104,0.896-2,2-2s2,0.896,2,2C107.292,158.545,89.118,163.01,71.167,163.01z M76.228,137.423c-1.076,0-1.964-0.854-1.998-1.938
	l-0.729-23.188c-0.035-1.104,0.832-2.026,1.936-2.062c1.115-0.065,2.027,0.832,2.062,1.937l0.729,23.188
	c0.035,1.104-0.832,2.026-1.936,2.062C76.271,137.423,76.249,137.423,76.228,137.423z M63.398,119.485
	c-0.041,0-0.082-0.001-0.123-0.004c-1.103-0.066-1.942-1.015-1.876-2.117l1.604-26.542c0.067-1.102,1.015-1.942,2.117-1.875
	c1.103,0.066,1.942,1.015,1.876,2.117l-1.604,26.542C65.328,118.667,64.447,119.485,63.398,119.485z M43.998,114.235
	c-0.317,0-0.638-0.075-0.937-0.233c-0.976-0.519-1.346-1.729-0.828-2.705l2.479-4.667c0.518-0.976,1.727-1.346,2.705-0.828
	c0.975,0.519,1.346,1.729,0.828,2.705l-2.479,4.667C45.407,113.85,44.714,114.235,43.998,114.235z M97.376,107.673
	c-0.614,0-1.219-0.281-1.611-0.813l-2.042-2.771c-0.655-0.89-0.466-2.142,0.423-2.797c0.89-0.653,2.142-0.465,2.796,0.424
	l2.042,2.771c0.655,0.89,0.466,2.142-0.423,2.797C98.204,107.546,97.788,107.673,97.376,107.673z M34.085,100.527
	c-0.702,0-1.383-0.37-1.749-1.026c-0.538-0.965-0.191-2.183,0.773-2.721l9.917-5.527c0.967-0.538,2.184-0.19,2.721,0.773
	c0.538,0.965,0.191,2.183-0.773,2.721l-9.917,5.527C34.749,100.446,34.414,100.527,34.085,100.527z M94.019,94.125
	c-0.398,0-0.8-0.118-1.15-0.365l-2.917-2.057c-0.902-0.637-1.118-1.885-0.481-2.787c0.635-0.903,1.882-1.121,2.787-0.482
	l2.917,2.057c0.902,0.637,1.118,1.885,0.481,2.787C95.266,93.83,94.647,94.125,94.019,94.125z M109.918,93.971
	c-0.159,0-0.319-0.019-0.48-0.059l-8.896-2.194c-1.072-0.264-1.728-1.348-1.463-2.42s1.348-1.727,2.421-1.463l8.896,2.194
	c1.072,0.264,1.728,1.348,1.463,2.42C111.634,93.362,110.817,93.971,109.918,93.971z M39.04,87.84c-0.929,0-1.762-0.65-1.957-1.597
	c-0.223-1.082,0.474-2.14,1.555-2.362l4.958-1.021c1.085-0.228,2.14,0.473,2.363,1.556c0.223,1.082-0.474,2.14-1.555,2.362
	l-4.958,1.021C39.309,87.827,39.174,87.84,39.04,87.84z"/>
<g>
</g>
<g>
</g>
<g>
</g>
<g>
</g>
<g>
</g>
<g>
</g>
<g>
</g>
<g>
</g>
<g>
</g>
<g>
</g>
<g>
</g>
<g>
</g>
<g>
</g>
<g>
</g>
<g>
</g>
</svg>
