<?xml version="1.0" encoding="iso-8859-1"?>
<!-- Generator: Adobe Illustrator 19.0.0, SVG Export Plug-In . SVG Version: 6.00 Build 0)  -->
<svg version="1.1" id="Capa_1" xmlns="http://www.w3.org/2000/svg" xmlns:xlink="http://www.w3.org/1999/xlink" x="0px" y="0px"
	 viewBox="0 0 463 463" style="enable-background:new 0 0 463 463;" xml:space="preserve">
<g>
	<path d="M455.5,430.094c-13.593,0-20.881,5.211-26.737,9.399c-5.158,3.688-9.231,6.601-18.013,6.601
		c-8.789,0-12.865-2.914-18.025-6.602c-5.858-4.188-13.149-9.398-26.747-9.398c-13.602,0-20.896,5.21-26.756,9.397
		c-5.164,3.689-9.242,6.603-18.036,6.603c-8.794,0-12.873-2.914-18.036-6.603c-5.86-4.187-13.154-9.397-26.756-9.397
		s-20.896,5.21-26.756,9.397c-5.164,3.689-9.242,6.603-18.037,6.603c-0.216,0-0.416-0.01-0.626-0.013
		c0.01-0.162,0.025-0.322,0.025-0.487v-77.599l160.978,46.989c5.074,1.473,10.288,2.219,15.497,2.219
		c24.525,0,46.433-16.466,53.279-40.048c0.052-0.182,0.098-0.362,0.139-0.548c0.944-3.877-1.324-7.842-5.187-8.97l-69.267-20.219
		c-21.333-6.194-33.736-28.617-27.648-49.985c1.13-3.965-1.153-8.099-5.111-9.255l-42.129-12.298
		c13.862-6.724,24.766-19.089,29.237-34.493c7.695-26.51-5.364-54.204-29.567-65.637c15.601-7.425,27.392-21.976,30.816-39.886
		c5.304-27.746-12.631-55.894-40.832-64.081L62.644,2.523C54.435,0.14,45.82,4.878,43.437,13.087l-22.305,76.83
		c-1.154,3.977-0.691,8.164,1.304,11.792c1.996,3.627,5.284,6.261,9.26,7.415L70.8,120.476c-0.685,0.341-1.368,0.688-2.043,1.059
		c-12.997,7.146-22.434,18.923-26.57,33.163c-7.71,26.562,5.413,54.314,29.707,65.706c-1.055,0.498-2.104,1.018-3.135,1.585
		c-12.998,7.145-22.435,18.922-26.571,33.161c0,0,0,0.001,0,0.001c-8.531,29.388,8.438,60.239,37.816,68.768L184,354.275v75.902
		c-11.823,0.659-18.51,5.425-23.953,9.315c-5.162,3.688-9.239,6.602-18.03,6.602c-8.802,0-12.883-2.914-18.051-6.604
		c-5.863-4.186-13.16-9.396-26.767-9.396c-13.614,0-20.915,5.209-26.781,9.395c-5.172,3.69-9.258,6.605-18.069,6.605
		s-12.896-2.915-18.069-6.605c-5.866-4.186-13.167-9.395-26.781-9.395c-4.142,0-7.5,3.358-7.5,7.5s3.358,7.5,7.5,7.5
		c8.811,0,12.896,2.915,18.069,6.605c5.866,4.186,13.167,9.395,26.781,9.395s20.915-5.209,26.781-9.395
		c5.172-3.69,9.258-6.605,18.069-6.605c8.802,0,12.884,2.914,18.051,6.604c5.863,4.186,13.16,9.396,26.767,9.396
		c13.6,0,20.892-5.211,26.75-9.398c5.162-3.688,9.239-6.602,18.03-6.602c8.798,0,12.877,2.914,18.043,6.603
		c5.861,4.187,13.156,9.397,26.761,9.397c13.602,0,20.896-5.21,26.756-9.397c5.164-3.689,9.242-6.603,18.036-6.603
		s12.873,2.914,18.036,6.603c5.86,4.187,13.154,9.397,26.756,9.397c13.602,0,20.896-5.21,26.756-9.397
		c5.164-3.689,9.242-6.603,18.036-6.603c8.788,0,12.864,2.913,18.024,6.602c5.858,4.188,13.149,9.398,26.748,9.398
		c13.593,0,20.882-5.212,26.738-9.399c5.157-3.688,9.231-6.601,18.013-6.601c4.142,0,7.5-3.358,7.5-7.5
		S459.643,430.094,455.5,430.094z M327.303,133.047c-3.662,19.157-20.397,33.062-39.792,33.062c-3.794,0-7.601-0.546-11.315-1.625
		l-208.538-60.54l22.584-77.789l206.781,60.033C317.868,92.24,331.169,112.823,327.303,133.047z M35.537,94.1L35.537,94.1
		l22.305-76.83c0.063-0.218,0.264-0.361,0.48-0.361c0.046,0,0.093,0.006,0.14,0.02l17.374,5.044l-22.584,77.79l-17.374-5.044
		C35.613,94.642,35.46,94.364,35.537,94.1z M56.591,158.881c3.019-10.39,9.906-18.985,19.393-24.201
		c6.064-3.334,12.722-5.031,19.449-5.031c3.791,0,7.605,0.539,11.345,1.628l192.001,55.746
		c21.445,6.226,33.828,28.738,27.603,50.183c-4.995,17.207-20.979,29.224-38.872,29.224c-3.794,0-7.601-0.546-11.315-1.625
		L84.195,209.062C62.75,202.836,50.367,180.325,56.591,158.881z M56.592,259.333c3.019-10.39,9.906-18.984,19.392-24.199
		c9.482-5.212,20.418-6.42,30.785-3.403l236.036,68.899c-3.876,26.923,12.642,53.41,39.442,61.191l61.444,17.936
		c-6.765,13.503-20.781,22.447-36.216,22.447c-3.794,0-7.601-0.547-11.305-1.622L84.195,309.516
		C62.75,303.29,50.367,280.778,56.592,259.333z M199,431.762v-73.108l17,4.962v77.589c-0.802-0.546-1.607-1.119-2.441-1.714
		C209.757,436.775,205.339,433.637,199,431.762z"/>
	<path d="M109.409,65.041l12.928,3.753c0.698,0.203,1.402,0.299,2.094,0.299c3.251,0,6.247-2.131,7.199-5.411
		c1.155-3.978-1.134-8.139-5.112-9.293l-12.928-3.753c-3.978-1.155-8.139,1.134-9.293,5.112S105.431,63.887,109.409,65.041z"/>
	<path d="M157.405,78.976l32.003,9.292c0.699,0.203,1.402,0.299,2.095,0.299c3.251,0,6.247-2.131,7.199-5.411
		c1.155-3.978-1.134-8.139-5.111-9.294l-32.003-9.292c-3.981-1.155-8.139,1.134-9.294,5.111
		C151.139,73.66,153.428,77.821,157.405,78.976z"/>
	<path d="M141.414,174.654l71.993,20.902c0.699,0.203,1.402,0.299,2.095,0.299c3.251,0,6.247-2.131,7.199-5.411
		c1.155-3.978-1.134-8.139-5.111-9.294l-71.993-20.902c-3.979-1.155-8.139,1.134-9.294,5.111
		C135.148,169.338,137.437,173.499,141.414,174.654z"/>
	<path d="M97.836,162.001l11.57,3.359c0.699,0.203,1.402,0.299,2.095,0.299c3.251,0,6.247-2.131,7.199-5.411
		c1.155-3.978-1.134-8.139-5.111-9.294l-11.57-3.359c-3.981-1.155-8.139,1.134-9.294,5.111
		C91.57,156.686,93.859,160.846,97.836,162.001z"/>
	<path d="M257.602,293.468l-111.994-32.691c-3.975-1.159-8.14,1.122-9.301,5.098c-1.161,3.976,1.122,8.141,5.098,9.301
		l111.994,32.691c0.702,0.205,1.409,0.302,2.105,0.302c3.247,0,6.24-2.126,7.196-5.4
		C263.86,298.793,261.578,294.629,257.602,293.468z"/>
	<path d="M113.604,251.435l-11.575-3.379c-3.973-1.159-8.14,1.121-9.301,5.098c-1.161,3.976,1.122,8.141,5.098,9.301l11.575,3.379
		c0.702,0.205,1.409,0.302,2.105,0.302c3.247,0,6.24-2.126,7.196-5.4C119.863,256.76,117.581,252.596,113.604,251.435z"/>
</g>
<g>
</g>
<g>
</g>
<g>
</g>
<g>
</g>
<g>
</g>
<g>
</g>
<g>
</g>
<g>
</g>
<g>
</g>
<g>
</g>
<g>
</g>
<g>
</g>
<g>
</g>
<g>
</g>
<g>
</g>
</svg>
